<svg xmlns="http://www.w3.org/2000/svg" width="41" height="40"><g fill="#FFF" fill-rule="evenodd"><path fill-rule="nonzero" d="M36.5 0a4 4 0 014 4v32a4 4 0 01-4 4h-32a4 4 0 01-4-4V4a4 4 0 014-4h32zm0 1h-32a3 3 0 00-3 3v32a3 3 0 003 3h32a3 3 0 003-3V4a3 3 0 00-3-3z"/><path d="M32.702 14H8.297a1.27 1.27 0 01-.92-.397A1.365 1.365 0 017 12.655v-2.31c0-.371.145-.707.379-.95.235-.244.56-.395.918-.395h24.405c.361 0 .688.152.923.399.232.243.375.576.375.945v2.311c0 .37-.143.703-.376.947a1.273 1.273 0 01-.922.398zM18 18H8.321c-.365 0-.696.151-.935.396a1.35 1.35 0 00-.386.949v2.31c0 .37.146.705.384.948.24.245.57.397.937.397H18v-5zm15.618.4c-.24-.247-.572-.4-.94-.4H23v5h9.678c.368 0 .7-.152.94-.398.236-.243.382-.577.382-.946v-2.311c0-.369-.146-.703-.382-.946zm0 8.998a1.31 1.31 0 00-.94-.398H23v5h9.679c.367 0 .699-.153.939-.399.236-.243.382-.576.382-.946v-2.31c0-.37-.146-.703-.382-.947zM18 27H8.321c-.365 0-.696.151-.935.395a1.353 1.353 0 00-.386.95v2.31c0 .37.146.704.384.948.24.245.57.397.937.397H18v-5z"/></g></svg>